# xmcd
# 
# Track frame offsets:
#     150
#     25396
#     49459
#     76232
#     102805
#     126997
#     159167
#     184288
#     207793
#     234698
#     247305
# 
# Disc length: 3426
# 
# Revision: 6
# Processed by: cddbd v1.5.2PL0 Copyright (c) Steve Scherf et al.
# Submitted via: fre:ac v1.0.31
# 
DISCID=970d600b
DTITLE=Jeff Healey Band - Songs From The Road (live)
DYEAR=2009
DGENRE=Rock/Pop
TTITLE0=I Think I Love You Too Much
TTITLE1=I'm Ready
TTITLE2=Stop Breaking Down
TTITLE3=Angel Eyes
TTITLE4=Come Together
TTITLE5=Hoochie Coochie Man
TTITLE6=White Room
TTITLE7=While My Guitar Gently Weeps
TTITLE8=Whipping Post
TTITLE9=Teach Your Children Well
TTITLE10=Santa, Bring My Baby Back (To Me)
EXTD=
EXTT0=
EXTT1=
EXTT2=
EXTT3=
EXTT4=
EXTT5=
EXTT6=
EXTT7=
EXTT8=
EXTT9=
EXTT10=
PLAYORDER=
